/* XPM */
static char * flywire_xpm[] = {
"48 48 257 2",
"  	c None",
". 	c #CBCACB",
"+ 	c #9C9E9E",
"@ 	c #737777",
"# 	c #565A5A",
"$ 	c #4B4E4E",
"% 	c #454848",
"& 	c #3D4242",
"* 	c #ABB6B6",
"= 	c #5A6161",
"- 	c #1F2121",
"; 	c #0A0303",
"> 	c #000000",
", 	c #2C0101",
"' 	c #360101",
") 	c #470506",
"! 	c #140101",
"~ 	c #B7B7B8",
"{ 	c #383939",
"] 	c #640C0D",
"^ 	c #7D1416",
"/ 	c #821C1E",
"( 	c #951F20",
"_ 	c #96292B",
": 	c #8A2425",
"< 	c #891E1F",
"[ 	c #741616",
"} 	c #460C0C",
"| 	c #313131",
"1 	c #292D2D",
"2 	c #210000",
"3 	c #921718",
"4 	c #A02F30",
"5 	c #A4393A",
"6 	c #A24242",
"7 	c #973636",
"8 	c #B5B2B3",
"9 	c #9F2426",
"0 	c #AC4747",
"a 	c #B45050",
"b 	c #BC5757",
"c 	c #C25D5E",
"d 	c #4E0707",
"e 	c #646565",
"f 	c #D5D5D6",
"g 	c #A82224",
"h 	c #AE3B3C",
"i 	c #B54949",
"j 	c #D06565",
"k 	c #D96E6E",
"l 	c #DD7575",
"m 	c #CA5C5C",
"n 	c #C25555",
"o 	c #861516",
"p 	c #740809",
"q 	c #310505",
"r 	c #C2C3C3",
"s 	c #0F1918",
"t 	c #9C1B1B",
"u 	c #A92A2B",
"v 	c #E77B7B",
"w 	c #EB8485",
"x 	c #EB8C8C",
"y 	c #F38F8F",
"z 	c #F48888",
"A 	c #E47171",
"B 	c #D76161",
"C 	c #D35555",
"D 	c #C14949",
"E 	c #7F0C0D",
"F 	c #171B1B",
"G 	c #0A0D0D",
"H 	c #AF3334",
"I 	c #F79595",
"J 	c #F89D9D",
"K 	c #FDA4A4",
"L 	c #F27C7C",
"M 	c #F27171",
"N 	c #E55C5C",
"O 	c #DA4F4F",
"P 	c #CE4141",
"Q 	c #BB3333",
"R 	c #141515",
"S 	c #B02324",
"T 	c #BC3939",
"U 	c #FEADAE",
"V 	c #FEB8B8",
"W 	c #FE9D9D",
"X 	c #FE8D8E",
"Y 	c #FE8080",
"Z 	c #F36262",
"` 	c #ED5151",
" .	c #E24242",
"..	c #D63737",
"+.	c #C6292B",
"@.	c #C84B4C",
"#.	c #FE7676",
"$.	c #FE5F5F",
"%.	c #F75050",
"&.	c #F04344",
"*.	c #E53434",
"=.	c #D92B2B",
"-.	c #CA1F1F",
";.	c #B31D1D",
">.	c #C63637",
",.	c #F18585",
"'.	c #FEC1C1",
").	c #FF9596",
"!.	c #FF8687",
"~.	c #FF6C6C",
"{.	c #FE5757",
"].	c #FE4D4E",
"^.	c #FE3E3F",
"/.	c #F43334",
"(.	c #E82627",
"_.	c #DD2424",
":.	c #C93032",
"<.	c #FE4646",
"[.	c #FD3839",
"}.	c #FE2727",
"|.	c #F52627",
"1.	c #EB1F1F",
"2.	c #DD1E1E",
"3.	c #9D1515",
"4.	c #242626",
"5.	c #DA5959",
"6.	c #FE3131",
"7.	c #F62020",
"8.	c #AB1A1A",
"9.	c #8A1011",
"0.	c #550606",
"a.	c #A3A2A2",
"b.	c #E76767",
"c.	c #B06363",
"d.	c #935656",
"e.	c #885150",
"f.	c #7E4646",
"g.	c #6E2E2E",
"h.	c #8B3030",
"i.	c #F84849",
"j.	c #FE1F1F",
"k.	c #C01C1D",
"l.	c #190605",
"m.	c #D0282A",
"n.	c #DA4343",
"o.	c #725F5F",
"p.	c #989898",
"q.	c #C3CCCC",
"r.	c #DCE1E1",
"s.	c #868A8A",
"t.	c #451A19",
"u.	c #F21C1C",
"v.	c #D31A1A",
"w.	c #B91818",
"x.	c #020505",
"y.	c #E44C4C",
"z.	c #B86565",
"A.	c #BCBEBE",
"B.	c #FFFFFF",
"C.	c #CAD0D0",
"D.	c #E51819",
"E.	c #C91515",
"F.	c #AD1011",
"G.	c #920508",
"H.	c #760406",
"I.	c #7F7F7F",
"J.	c #ED3B3B",
"K.	c #FC6566",
"L.	c #9A4C4C",
"M.	c #757272",
"N.	c #F4FBFB",
"O.	c #D8DADA",
"P.	c #F8F8F9",
"Q.	c #91A1A1",
"R.	c #291616",
"S.	c #FF1616",
"T.	c #F71317",
"U.	c #ED1112",
"V.	c #D60B0A",
"W.	c #B50101",
"X.	c #9B0000",
"Y.	c #900101",
"Z.	c #5F5E5E",
"`.	c #E6E6E6",
" +	c #351313",
".+	c #FF0C0D",
"++	c #F40104",
"@+	c #DC0000",
"#+	c #C20001",
"$+	c #A80000",
"%+	c #443737",
"&+	c #F2F3F3",
"*+	c #697A7A",
"=+	c #590102",
"-+	c #FE0506",
";+	c #FB0000",
">+	c #EB0000",
",+	c #CF0103",
"'+	c #830101",
")+	c #561918",
"!+	c #A1B0B0",
"~+	c #908F8F",
"{+	c #420101",
"]+	c #ADACAC",
"^+	c #CF1112",
"/+	c #DC3A3A",
"(+	c #4E4242",
"_+	c #6D0000",
":+	c #797979",
"<+	c #808787",
"[+	c #E6EFEF",
"}+	c #511C1C",
"|+	c #B2BEBE",
"1+	c #555354",
"2+	c #786464",
"3+	c #880607",
"4+	c #3E4B4B",
"5+	c #611717",
"6+	c #CEDADA",
"7+	c #630101",
"8+	c #9CA9A9",
"9+	c #530F0F",
"0+	c #866C6C",
"a+	c #667070",
"b+	c #773434",
"c+	c #C4D5D5",
"d+	c #748181",
"e+	c #1C1C1C",
"f+	c #706C6C",
"g+	c #B80409",
"h+	c #283939",
"i+	c #ECECEC",
"j+	c #D4E2E2",
"k+	c #401E1E",
"l+	c #A40509",
"m+	c #3B1010",
"n+	c #374646",
"o+	c #3B3030",
"p+	c #8C9898",
"q+	c #C60309",
"r+	c #4D0000",
"s+	c #3A2727",
"t+	c #B8C7C7",
"u+	c #5C3E3D",
"v+	c #DC0209",
"w+	c #E90108",
"x+	c #FD0A18",
"y+	c #F0040E",
"z+	c #794041",
"A+	c #7E3B3B",
"B+	c #B85D5E",
"C+	c #F02A2C",
"D+	c #9F5151",
"E+	c #632B2B",
"F+	c #AB5455",
"G+	c #310C0C",
"H+	c #1E1616",
"                                    . + @ # $ % & % # @ + .                                     ",
"                              * = - ; > , ' ) ) ' ! ; ! > > - = ~                               ",
"                          + { ! ' ] ^ / ( _ _ _ _ : : < [ } ! > > | +                           ",
"                      * 1 2 ] 3 ( _ 4 5 6 6 6 6 6 6 6 7 7 _ < [ } ; > 1 8                       ",
"                    = ! ] ( 9 4 5 0 a a b c c c c c b a 0 6 7 _ < ^ d ; > e                     ",
"                f 1 ! 3 g 4 h i b c j k l l l l l l k j m n i 5 _ : o p q > | f                 ",
"              r s , t u h i n j k l v w x y y y y z w v A B C D h 4 ( o E ) > F r               ",
"            r G q g H i n j k v w y I J J K K K J J I z L M N O P Q u ( o E d > G r             ",
"          f R q S T D m k v w y J K U U U V U U U K W X Y M Z `  ...+.S ( o E ) > R f           ",
"          1 ! g T @.B A w y J K U V V V V V V V U K W X Y #.$.%.&.*.=.-.;.t o E ) > 1           ",
"        e > < >.@.B A ,.I K U V V '.'.'.'.V V U U W ).!.#.~.{.].^./.(._.-.;.t o E q > e         ",
"      ~ > ] :.@.B A ,.I K U V '.'.'.'.'.V V U K W ).!.#.~.$.].<.[.}.|.1.2.-.;.3.o p ! > ~       ",
"      4., +.P 5.A ,.I K U V '.'.'.'.V V U U K ).X !.#.~.$.].<.^.6.}.}.7.1.2.-.8.3 9.0.> 1       ",
"    a.> 3 ..O b.L y W U V V '.V V V U U x c.d.e.f.g.h.T i.<.[.6.}.}.}.j.7.1.2.k.8.3 E l.> +     ",
"    & q m.n.N M z ).K U V V V U U U x d.o.p.q.r.r.* s.% t.t 6.6.}.}.j.j.j.u.1.v.w.3.9.d > {     ",
"  . x.9.*.y.Z #.X W K U U U K K W z.o.A.B.B.B.B.B.B.B.B.C.= } v.}.}.j.j.j.j.u.D.E.F.G.H.! > ~   ",
"  I.> k.J.` K.#.X ).W K K W ).).L.M.N.B.B.B.B.O.r . P.B.B.B.Q.R.v.j.j.j.j.S.T.U.V.W.X.Y.d > Z.  ",
"  & ' (.J.%.K.#.!.X ).).X !.!.6 e B.B.B.O.@ | ; > > 4.M.`.B.B.q. +D.j.j.S.S..+++@+#+$+Y.H.; -   ",
"  s p |.J.%.$.~.#.Y Y Y #.#.C %+&+B.B.a.R > > > > > > > 4.r B.B.*+=+S.S..+-+;+;+>+,+W.Y.'+2 > . ",
". > F.}.[.<.{.$.~.~.~.~.K.$.)+!+B.B.~+> > > > > > > > > > G . B.B.Z.,+-+-+-+;+;+>+@+#+X.Y.{+> + ",
"]+> ^+}.[.<.].{.{.{.{.{.{./+(+B.B.. > > > > > > > > > > > > { P.B.!+_+-+-+-+;+;+++@+#+$+Y.0.> :+",
"<+! U.}.[.^.<.<.<.<.<.<.<.t <+B.B.$ > > > > > > > > > > > > > a.B.[+}+;+-+-+-+;+;+>+,+W.X.H.> # ",
"= {+S.}.[.[.[.[.[.[.[.[.6.[ |+B.`.G > > > > > e 1+x.> > > > > 1 P.B.2+@+-+-+-+;+;+>+,+W.X.3+> % ",
"4+=+S.6.[.[.[.6.6.6.6.}.}.5+6+B.]+> > > > > Z.B.B.a.G > > > > G `.B.p.#+-+-+-+;+;+>+@+W.X.Y.; & ",
"4+7+j.6.[.[.6.}.}.}.}.}.j.)+O.B.:+> > > > > + B.B.B.Z.> > > > x.O.B.8+$+-+-+-+;+;+>+@+#+$+G.> & ",
"# {+}.[.^.[.6.}.}.}.}.}.j.9+C.B.:+> > > > > % B.B.P.{ > > > > R `.B.~+#+-+-+-+;+;+>+@+#+$+G.; % ",
"@ {+}.^.<.^.6.}.}.j.j.j.j.7+8+B.. > > > > > > 1+~+{ > > > > > { B.B.0+>+-+-+-+;+;+>+@+#+W.G.> # ",
"~+! (.<.<.^.[.}.}.j.j.j.j.3+a+B.B.{ > > > > > > > > > > > > > ~+B.N.b+;+-+-+-+;+;+>+@+#+W.3+> @ ",
"8 > S <.].<.[.}.}.j.j.j.j.^+R r.B.8 > > > > > > > > > > > > | P.B.c+3+;+-+-+-+;+;+>+@+#+#+p > + ",
"f x.[ ].{.].^.6.}.j.j.S.S..+, d+B.B.I.> > > > > > > > > > e+C.B.B.f+,+-+-+-+-+;+;+>+@+#+#+=+> . ",
"  - ; &.$.{.<.[.}.j.S..+-+-+W.s `.B.B.:+> > > > > > > > | O.B.B.* 7+-+-+-+-+-+;+;+>+@+,+g+2 F   ",
"  Z.> H $.$.].[.}.S.-+-+-+-+-+7+h+i+B.B.~ % ; > > > R f+&+B.B.j+k+@+-+-+-+-+-+;+;+>+@+,+l+> #   ",
"  8 > m+$.~.{.^.j.S..+-+-+-+-+++' n+r.B.B.B.O.a.p.]+`.B.B.B.6+o+#+-+-+-+-+-+-+;+;+>+@+,+H.> ]+  ",
"    | ; ` ~.$.].6.j..+-+-+-+-+-+-+_+F p+&+B.B.B.B.B.B.B.N.Q.t.#+-+-+-+-+-+-+-+;+++>+@+q+2 1     ",
"    p.> h ~.~.$.<.}.S..+-+-+-+-+-+-+#+r+s+a+* t+j+6+* s.u+'+>+-+-+-+-+-+-+-+-+;+>+>+v+G.> p.    ",
"      - m+Z #.~.$.^.}.S..+-+-+-+-+-+-+-+@+W.X.3+3.3.$+W.>+-+-+-+-+-+-+-+-+-+-+;+>+w+,+, -       ",
"      ]+>  +c Y #.{.^.}.S..+-+-+-+-+-+-+-+-+-+;+;+;+-+-+-+-+-+-+-+-+-+.+.+.+-+;+++w+H.> ]+      ",
"        Z.> g.!.Y #.$.^.}.j.S..+-+-+-+-+-+-+-+-+-+-+-+-+-+-+-+-+-+.+.+.+.+.+.+-+++g+> #         ",
"        `.- ! m X !.#.$.<.6.j.S..+.+-+-+-+-+-+-+-+-+-+-+-+-+-+.+.+.+S.S.S.j.[.x+v+, - `.        ",
"          . G l.M ).X Y ~.{.^.}.j.S..+.+.+-+-+-+-+-+-+-+.+.+.+S.S.j.j.j.6.].^.y+{+G .           ",
"            ~ ;  +c W ).X #.$.].^.6.}.j.S.S..+.+.+.+.+S.S.S.j.j.}.}.6.<.$.].T.=+x.8             ",
"              8 G ; z+W K ).!.#.$.].<.[.6.}.}.j.j.j.j.}.}.}.6.6.[.<.$.K.<.D.r+G 8               ",
"                . - > A+w K K ).!.#.~.$.{.].<.^.^.^.^.^.^.<.].{.~.#.$.^.^+, - .                 ",
"                  `.1+> l.B+).U K W ).!.Y #.~.K.$.$.$.K.~.#.Y Y ~.].C+3+! $ `.                  ",
"                      a.e+>  +D+z K U K K W ).).X X X ).X !.#.{./.F., F a.                      ",
"                          ~+- > ! E+F+v X X ).).).X Y #.$.i.+.E , 4.s.                          ",
"                              a.$ G > ! q G+h.h 5 H ( ^ ] q H+% +                               ",
"                                  `.A.s.= & 1 4.4.| & = <+~ `.                                  "};
